HIERARCHY
ROOT Bip001_Pelvis
{
  OFFSET 34.4345 95.6767 -26.8758
  CHANNELS 6 Xposition Yposition Zposition Zrotation Xrotation Yrotation
  JOINT Bip001_Spine
  {
    OFFSET 1.4188e-005 10.2191 -0.0116013
    CHANNELS 3 Zrotation Xrotation Yrotation
    JOINT Bip001_L_Thigh
    {
      OFFSET 11.0458 -10.2192 0.0116197
      CHANNELS 3 Zrotation Xrotation Yrotation
      JOINT Bip001_L_Calf
      {
        OFFSET -0.707118 -44.0221 0.360014
        CHANNELS 3 Zrotation Xrotation Yrotation
        JOINT Bip001_L_Foot
        {
          OFFSET -0.651902 -40.5938 -3.56146
          CHANNELS 3 Zrotation Xrotation Yrotation
          JOINT Bip001_L_Toe0
          {
            OFFSET 0.0530839 -10.2181 13.1504
            CHANNELS 3 Zrotation Xrotation Yrotation
            End Site
            {
              OFFSET -1.02532e-005 0 7.55606
            }
          }
        }
      }
    }
    JOINT Bip001_R_Thigh
    {
      OFFSET -11.0458 -10.2191 0.0115893
      CHANNELS 3 Zrotation Xrotation Yrotation
      JOINT Bip001_R_Calf
      {
        OFFSET 0.706994 -44.0221 0.35984
        CHANNELS 3 Zrotation Xrotation Yrotation
        JOINT Bip001_R_Foot
        {
          OFFSET 0.651786 -40.5938 -3.5613
          CHANNELS 3 Zrotation Xrotation Yrotation
          JOINT Bip001_R_Toe0
          {
            OFFSET -0.0531479 -10.2181 13.1504
            CHANNELS 3 Zrotation Xrotation Yrotation
            End Site
            {
              OFFSET -1.02894e-005 0 7.55606
            }
          }
        }
      }
    }
    JOINT Bip001_Spine1
    {
      OFFSET 1.87041e-005 14.5736 1.08638
      CHANNELS 3 Zrotation Xrotation Yrotation
      JOINT Bip001_Spine2
      {
        OFFSET 2.24614e-005 14.5058 -1.69078
        CHANNELS 3 Zrotation Xrotation Yrotation
        JOINT Bip001_Neck
        {
          OFFSET 2.20278e-005 15.3945 -0.489414
          CHANNELS 3 Zrotation Xrotation Yrotation
          JOINT Bip001_L_Clavicle
          {
            OFFSET 6.06036 -0.000579998 0.00836775
            CHANNELS 3 Zrotation Xrotation Yrotation
            JOINT Bip001_L_UpperArm
            {
              OFFSET 11.5509 -0.0600302 0.00193952
              CHANNELS 3 Zrotation Xrotation Yrotation
              JOINT Bip001_L_Forearm
              {
                OFFSET 25.9523 0.0806089 -2.15551
                CHANNELS 3 Zrotation Xrotation Yrotation
                JOINT Bip001_L_Hand
                {
                  OFFSET 32.2475 0.153767 1.63968
                  CHANNELS 3 Zrotation Xrotation Yrotation
                  JOINT Bip001_L_Finger0
                  {
                    OFFSET 6.04639 -2.20976 5.90322
                    CHANNELS 3 Zrotation Xrotation Yrotation
                    End Site
                    {
                      OFFSET 4.22375 -1.43895 0.606485
                    }
                  }
                  JOINT Bip001_L_Finger1
                  {
                    OFFSET 11.0826 -0.704819 -0.198153
                    CHANNELS 3 Zrotation Xrotation Yrotation
                    End Site
                    {
                      OFFSET 6.20027 -0.397518 -0.0787166
                    }
                  }
                }
              }
            }
          }
          JOINT Bip001_R_Clavicle
          {
            OFFSET -6.06037 -0.000563197 0.00835105
            CHANNELS 3 Zrotation Xrotation Yrotation
            JOINT Bip001_R_UpperArm
            {
              OFFSET -11.5509 -0.0599978 0.00190698
              CHANNELS 3 Zrotation Xrotation Yrotation
              JOINT Bip001_R_Forearm
              {
                OFFSET -25.9523 0.0806822 -2.15589
                CHANNELS 3 Zrotation Xrotation Yrotation
                JOINT Bip001_R_Hand
                {
                  OFFSET -32.2475 0.153859 1.63989
                  CHANNELS 3 Zrotation Xrotation Yrotation
                  JOINT Bip001_R_Finger0
                  {
                    OFFSET -6.04641 -2.20976 5.90317
                    CHANNELS 3 Zrotation Xrotation Yrotation
                    End Site
                    {
                      OFFSET -4.22376 -1.43895 0.60647
                    }
                  }
                  JOINT Bip001_R_Finger1
                  {
                    OFFSET -11.0826 -0.704794 -0.198182
                    CHANNELS 3 Zrotation Xrotation Yrotation
                    End Site
                    {
                      OFFSET -6.20028 -0.397504 -0.0787333
                    }
                  }
                }
              }
            }
          }
          JOINT Bip001_Head
          {
            OFFSET 1.09673e-005 11.2744 2.05948
            CHANNELS 3 Zrotation Xrotation Yrotation
            End Site
            {
              OFFSET 2.89576e-005 20.8808 -2.77728e-005
            }
          }
        }
      }
    }
  }
}
MOTION
Frames:	8
Frame Time:	0.04
31.604 95.6808 -32.2575 -0.135435 -2.37499 -4.16351 -0.00438288 2.76844 -0.346834 7.00703 -2.09294 12.6874 -0.194557 9.54667 -0.0490603 0.877662 -3.9258 0.00886582 1.12016 -5.33212 -0.185548 -2.93976 -5.17552 0.224497 0.548228 12.6786 0.271251 -6.04814 -8.83217 -0.699614 2.15188 -7.4436 2.41484 0.0215403 5.53681 -0.69512 0.0199629 5.53682 -0.69515 0.68982 -0.00813779 -1.61185 -24.6015 1.7753 -3.11535 -49.1198 37.4749 -0.125561 13.8308 -7.12459 -31.2997 9.56435 0.239005 -4.98667 0 0 -3.18055e-015 -3.18055e-015 0 -3.18055e-015 24.3727 8.29485 21.8802 60.5915 34.7131 -10.2687 -28.1736 29.2872 16.8341 18.4618 -2.5915 10.9434 1.59028e-015 1.59028e-015 -0 1.59028e-015 1.59028e-015 -1.98785e-016 0.148243 0.10769 -1.40549 
31.7412 95.7858 -32.024 -0.161689 -2.42111 -4.39619 0.00441665 2.70862 -0.236795 6.67702 -1.2042 12.2955 -0.0378204 8.24947 0.589082 0.605837 -3.56173 0.00886214 1.11361 -5.1509 -0.23699 -3.0437 -4.56022 -0.0800299 0.475919 11.8383 0.149688 -5.73281 -8.51642 -0.100101 2.11094 -7.262 2.30774 0.0183772 5.41721 -0.474021 0.0192743 5.41722 -0.474236 0.879197 -0.412355 -1.6805 -24.8836 2.20476 -3.18827 -49.3169 38.0262 0.113333 14.3192 -6.22498 -31.0793 8.84623 0.348473 -5.0158 1.76556e-031 -3.18055e-015 3.18055e-015 -3.18055e-015 -9.54167e-015 3.18055e-015 23.9601 8.49859 21.3832 61.7161 34.1354 -9.92168 -22.7346 26.2977 13.4689 16.6087 -3.78845 10.3739 -0 -1.59028e-015 -0 1.10348e-032 -1.59028e-015 3.97569e-016 -0.209919 0.127083 -1.34653 
31.9099 95.8812 -31.7302 -0.157284 -2.38641 -4.46326 0.0151093 2.63315 -0.190482 6.20012 -0.25652 12.4747 0.370163 6.6927 0.420262 0.205557 -3.1981 0.00967128 0.973293 -5.02402 -0.12489 -3.20244 -3.92539 -0.37575 0.437719 10.9384 0.114028 -5.53632 -8.19716 0.195245 2.09013 -7.27354 2.38976 0.0388005 5.26622 -0.38275 0.0386648 5.26624 -0.382478 1.11372 -0.903138 -1.66814 -25.2776 2.66235 -3.02683 -49.7618 37.9347 0.558971 15.198 -4.28095 -30.9546 7.61667 0.12286 -4.87257 6.36111e-015 0 -0 3.18055e-015 -3.18056e-015 -0 23.541 8.77205 20.8268 63.3947 32.2578 -10.8165 -21.0181 21.2086 11.7853 16.5206 -4.23427 8.64086 6.36111e-015 -3.18055e-015 -0 4.77083e-015 -6.36111e-015 -0 -0.74216 0.0287531 -1.14609 
32.0427 95.8848 -31.5656 -0.242179 -2.21143 -4.37638 0.0505846 2.52868 -0.232288 6.08727 -0.0503392 12.5158 0.447048 6.30636 0.271915 0.429801 -3.06454 0.0118062 1.04602 -5.23483 -0.180668 -3.25109 -3.71352 -0.431225 0.461116 10.6259 0.167106 -5.56362 -8.12097 0.248536 2.12178 -7.35119 2.38631 0.111096 5.05714 -0.467506 0.111697 5.05714 -0.467501 1.35899 -1.43833 -1.35643 -25.5545 3.19052 -2.80503 -50.6852 37.7751 1.56573 16.2817 -2.2699 -30.9827 7.55119 0.280663 -4.89885 -3.18055e-015 3.18055e-015 -0 3.18055e-015 3.18056e-015 -3.18055e-015 23.3337 8.91933 19.6822 64.7815 30.3741 -12.4978 -23.1521 20.3135 12.8833 15.6059 -4.44079 8.66339 7.95139e-016 0 -0 1.59028e-015 0 -0 -1.23617 0.232175 -0.662554 
32.1457 95.8471 -31.463 -0.324551 -2.23063 -4.16419 0.0597968 2.50463 -0.337273 6.24325 -0.2809 12.7222 0.294968 6.97441 -0.0435565 0.816167 -3.30029 0.00751121 1.07791 -5.27766 -0.22965 -3.23111 -3.64062 -0.401656 0.466789 10.7846 0.222632 -5.74165 -8.20134 0.136798 2.20333 -7.54566 2.38357 0.139971 5.00881 -0.678501 0.135421 5.00884 -0.678263 2.08827 -1.63189 -0.984672 -26.1526 3.42769 -2.81011 -51.5937 37.567 2.84166 17.4628 -0.405059 -31.5 7.37993 0.836566 -4.81809 -6.36111e-015 -6.36111e-015 1.59028e-015 -3.18055e-015 -3.18056e-015 1.59028e-015 22.8822 8.78638 18.6255 65.2887 28.115 -14.0801 -26.2604 19.6375 15.4747 13.2841 -4.65871 9.0964 0 3.18055e-015 -0 3.97569e-016 3.18056e-015 1.98785e-016 -1.91219 -0.114491 0.0621364 
32.2637 95.7987 -31.3877 -0.28901 -2.34636 -3.90375 0.042369 2.54629 -0.460466 6.24519 -0.510412 12.6697 0.127919 7.55871 -0.264822 1.80666 -3.11081 -0.0218796 1.40519 -5.70299 -0.483389 -3.2716 -3.69253 -0.206532 0.445903 11.1972 0.140862 -5.92604 -8.35335 -0.105331 2.27026 -7.73761 2.42894 0.104951 5.09218 -0.923897 0.108987 5.09217 -0.924245 2.50195 -2.27876 -0.590488 -26.1578 4.15981 -2.90054 -52.6062 37.6082 4.41011 18.9169 1.36013 -32.4823 7.59001 1.31769 -4.88557 -0 -3.18055e-015 -0 0 0 -1.59028e-015 22.6952 9.05541 17.382 65.4277 27.1048 -15.363 -28.382 17.2492 18.108 9.75056 -5.37013 9.53454 1.10348e-032 3.18055e-015 -1.98785e-016 -2.20695e-032 3.18056e-015 3.97569e-016 -1.97349 -0.0141958 0.552812 
32.4147 95.7731 -31.2973 -0.124107 -2.3268 -3.67921 0.00872369 2.58367 -0.589723 6.04566 -0.581478 12.349 0.0298779 7.59161 -0.0849888 2.18235 -3.00936 -0.0376623 1.46695 -6.00925 -0.498685 -3.45923 -3.87759 -0.0197114 0.45177 11.5951 0.0919029 -6.05184 -8.48844 -0.339268 2.32197 -7.88302 2.46092 0.0401795 5.16714 -1.18119 0.0418402 5.16713 -1.18123 2.72452 -3.0968 -0.133555 -26.0992 5.06695 -2.93186 -53.0617 38.2039 5.69614 19.7645 2.19997 -33.4232 7.12238 1.53485 -5.36873 -3.18055e-015 0 -0 0 0 -1.59028e-015 22.5851 9.61575 16.5833 65.3995 26.2197 -16.5232 -29.905 14.2876 20.3603 6.18937 -6.56234 10.0518 0 3.18055e-015 -0 -0 0 7.95139e-016 -1.98934 0.310993 1.05721 
32.5342 95.764 -31.1694 -0.100818 -2.23414 -3.61458 0.024529 2.61434 -0.644199 6.03841 -0.705996 12.8244 -0.0157183 7.8183 -0.359802 1.74302 -3.53501 -0.0157114 1.38135 -5.7094 -0.493587 -3.56255 -3.93522 0.118952 0.484982 11.6299 0.0577808 -6.14732 -8.49682 -0.46344 2.36408 -8.01171 2.50254 0.0788343 5.22825 -1.29156 0.0787327 5.22826 -1.29156 2.54754 -3.64813 0.323624 -25.8396 5.82015 -3.30452 -53.1224 39.0252 6.84324 20.1621 2.61996 -34.3896 6.62215 1.54225 -5.50065 3.18055e-015 0 -1.59028e-015 3.18055e-015 3.18056e-015 -1.59028e-015 22.7481 9.95716 16.0474 64.9672 24.4722 -17.6227 -31.7779 12.0583 22.9335 4.40894 -7.12022 10.2482 4.77083e-015 3.18055e-015 -3.18055e-015 4.77083e-015 3.18056e-015 -1.59028e-015 -1.69381 0.296331 1.37074 
